<?xml version="1.0" ?><!-- Uploaded to: SVG Repo, www.svgrepo.com, Generator: SVG Repo Mixer Tools -->
<svg fill="#000000" width="800px" height="800px" viewBox="0 0 64 64" data-name="Layer 1" id="Layer_1" xmlns="http://www.w3.org/2000/svg"><path d="M56.5,31.13c-.23-.13-5.38-3.09-9.96-5.15,1.7-4.45,3.15-9.79,3.39-10.69,.09-.35,0-.71-.26-.97-.25-.25-.62-.35-.97-.26-.26,.07-5.99,1.61-10.69,3.39-1.95-4.34-4.69-9.15-5.16-9.95-.36-.62-1.38-.62-1.73,0-.46,.8-3.21,5.61-5.16,9.95-4.7-1.78-10.43-3.32-10.69-3.39-.34-.09-.71,0-.97,.26-.25,.25-.35,.62-.26,.97,.24,.9,1.7,6.24,3.39,10.69-4.58,2.06-9.73,5.02-9.96,5.15-.31,.18-.5,.51-.5,.87s.19,.69,.5,.87c.37,.22,8.58,4.93,13.47,6.57-.59,1.62-1.06,3.02-1.23,3.57-.11,.36-.02,.75,.25,1.01,.19,.19,.45,.29,.71,.29,.1,0,.21-.02,.31-.05,.81-.26,3.46-1.13,5.91-2.14,.47,1.72,1.09,5.56,1.09,13.87,0,.55,.45,1,1,1h6c.55,0,1-.45,1-1,0-8.31,.63-12.15,1.09-13.87,2.45,1.01,5.11,1.88,5.91,2.14,.1,.03,.2,.05,.31,.05,.26,0,.52-.1,.71-.29,.27-.27,.36-.66,.25-1.01-.18-.55-.64-1.96-1.23-3.57,4.89-1.64,13.09-6.35,13.47-6.57,.31-.18,.5-.51,.5-.87s-.19-.69-.5-.87Zm-8.96-14.66c-1.5,5.29-3.87,12.35-5.38,13.86-.77,.77-1.78,1.25-2.9,1.39,.18-.14,.36-.27,.53-.43,1.65-1.66,4.02-8.87,4.48-10.3,.11-.36,.02-.75-.24-1.01-.27-.26-.66-.36-1.01-.25-.02,0-1.64,.53-3.57,1.24-.18-.53-.39-1.1-.62-1.69,3.08-1.16,6.66-2.24,8.73-2.83Zm-3.51,14.72c.62,.28,1.21,.56,1.72,.81-1.37,.66-3.29,1.55-4.95,2.19-.13-.24-.26-.46-.38-.66,1.2-.31,2.28-.91,3.16-1.79,.15-.15,.31-.34,.46-.55Zm-4.03-7.55c0-.21-.02-.46-.07-.72,.64-.24,1.25-.46,1.79-.64-1.06,3.04-2.53,6.77-3.36,7.6-.91,.91-2.27,1.1-3.39,.58,2.94-1.09,5.02-3.73,5.02-6.82Zm-8,5.35c-1.65,0-3-1.35-3-3,0-1.17,1.6-4.85,3-7.75,1.4,2.9,3,6.58,3,7.75,0,1.65-1.35,3-3,3Zm1.62,3c-.32,.2-.63,.43-.91,.7-.28,.28-.51,.59-.71,.91-.2-.32-.43-.63-.71-.91s-.59-.51-.91-.71c.32-.2,.63-.43,.91-.7,.1-.1,.19-.2,.29-.32,.14,0,.28,.02,.42,.02s.28-.01,.42-.02c.09,.11,.19,.22,.29,.32,.28,.28,.59,.5,.91,.7Zm-1.62-21.97c2.68,4.8,6,11.48,6,13.62,0,1.13-.4,2.18-1.07,3.04,.03-.23,.07-.45,.07-.69,0-2.33-3.42-9.12-4.11-10.46-.34-.67-1.44-.67-1.78,0-.69,1.34-4.11,8.12-4.11,10.46,0,.24,.04,.46,.07,.69-.67-.86-1.07-1.91-1.07-3.04,0-2.14,3.32-8.81,6-13.62Zm-2.98,20.44c-1.11,.52-2.47,.33-3.38-.58-.83-.83-2.3-4.56-3.36-7.6,.53,.19,1.15,.41,1.79,.64-.04,.26-.07,.51-.07,.72,0,3.09,2.08,5.73,5.02,6.82Zm-12.56-14c2.06,.59,5.65,1.67,8.73,2.83-.24,.59-.45,1.15-.62,1.69-1.93-.71-3.56-1.24-3.57-1.24-.36-.12-.75-.02-1.01,.25-.26,.27-.36,.66-.24,1.01,.46,1.43,2.84,8.64,4.49,10.3,.16,.16,.35,.29,.52,.43-1.12-.14-2.13-.62-2.9-1.39-1.51-1.51-3.88-8.58-5.38-13.86Zm7.13,17.07c-.13,.2-.25,.42-.38,.66-1.67-.64-3.59-1.53-4.95-2.19,.51-.25,1.1-.52,1.72-.81,.16,.21,.31,.4,.46,.55,.88,.88,1.96,1.48,3.16,1.79Zm-13.55-1.54c1.88-1.04,5.17-2.81,8.16-4.16,.25,.58,.5,1.13,.75,1.62-1.87,.86-3.39,1.64-3.41,1.65-.33,.17-.54,.51-.54,.89s.21,.72,.54,.89c.17,.09,3.77,1.93,6.79,3.11-.22,.51-.44,1.03-.65,1.56-3.45-1.13-8.97-4.09-11.64-5.56Zm12.23,9.73c1.06-3.05,2.53-6.78,3.36-7.6,1.17-1.17,3.07-1.17,4.24,0,1.17,1.17,1.17,3.07,0,4.24-.83,.83-4.56,2.3-7.6,3.36Zm11.73,13.27h-4.01c-.05-7.75-.64-11.68-1.24-13.68,1.12-.53,2.06-1.07,2.54-1.54,.28-.28,.51-.59,.71-.91,.2,.32,.43,.63,.71,.91,.47,.47,1.41,1.01,2.54,1.54-.6,2-1.2,5.94-1.24,13.68Zm.12-16.64c-1.17-1.17-1.17-3.07,0-4.24,1.17-1.17,3.07-1.17,4.24,0,.83,.83,2.3,4.56,3.36,7.6-3.05-1.06-6.78-2.53-7.6-3.36Zm8.2-.8c-.21-.53-.43-1.06-.65-1.56,3.02-1.18,6.62-3.02,6.79-3.11,.33-.17,.54-.51,.54-.89s-.21-.72-.54-.89c-.02,0-1.54-.79-3.41-1.65,.25-.5,.5-1.04,.75-1.62,2.99,1.35,6.28,3.12,8.16,4.16-2.67,1.48-8.19,4.43-11.64,5.56Z"/></svg>